/* XPM */
static char * quantisnet32_xpm[] = {
"32 32 2 1",
" 	c None",
".	c #0BC98D",
"                                ",
"                                ",
"               ..               ",
"              ....              ",
"             ......             ",
"            ........            ",
"           ..........           ",
"          ............          ",
"         ..............         ",
"        ......   ........       ",
"       ......     .......       ",
"      ......     .......        ",
"     ......     .......         ",
"    ......     .......     .    ",
"   ......     .......     ...   ",
"  ......     .......     .....  ",
"  ......     ......     ......  ",
"   ......     ....     ......   ",
"    ......     ..     ......    ",
"     ......          ......     ",
"      ......        ......      ",
"       ......      ......       ",
"        ......    ......        ",
"         ......  ......         ",
"          ............          ",
"           ..........           ",
"            ........            ",
"             ......             ",
"              ....              ",
"               ..               ",
"                                ",
"                                "};
